<!DOCTYPE svg PUBLIC "-//W3C//DTD SVG 1.1//EN" "http://www.w3.org/Graphics/SVG/1.1/DTD/svg11.dtd">
<!-- Uploaded to: SVG Repo, www.svgrepo.com, Transformed by: SVG Repo Mixer Tools -->
<svg width="195px" height="195px" viewBox="-11.76 -11.76 47.52 47.52" xmlns="http://www.w3.org/2000/svg" fill="#ffffff" stroke="#ffffff">
<g id="SVGRepo_bgCarrier" stroke-width="0">
<rect x="-11.76" y="-11.76" width="47.52" height="47.52" rx="23.76" fill="#000000" strokewidth="0"/>
</g>
<g id="SVGRepo_tracerCarrier" stroke-linecap="round" stroke-linejoin="round"/>
<g id="SVGRepo_iconCarrier"> <g> <path d="M0 0h24v24H0z" fill="none"/> <path d="M17 19h2v-8h-6v8h2v-6h2v6zM3 19V4a1 1 0 0 1 1-1h14a1 1 0 0 1 1 1v5h2v10h1v2H2v-2h1zm4-8v2h2v-2H7zm0 4v2h2v-2H7zm0-8v2h2V7H7z"/> </g> </g>
</svg>