<!DOCTYPE svg PUBLIC "-//W3C//DTD SVG 1.1//EN" "http://www.w3.org/Graphics/SVG/1.1/DTD/svg11.dtd">
<!-- Uploaded to: SVG Repo, www.svgrepo.com, Transformed by: SVG Repo Mixer Tools -->
<svg fill="#ffffff" height="800px" width="800px" version="1.1" id="Layer_1" xmlns="http://www.w3.org/2000/svg" xmlns:xlink="http://www.w3.org/1999/xlink" viewBox="-128 -128 768.00 768.00" xml:space="preserve" stroke="#ffffff">
<g id="SVGRepo_bgCarrier" stroke-width="0">
<rect x="-128" y="-128" width="768.00" height="768.00" rx="384" fill="#000000" strokewidth="0"/>
</g>
<g id="SVGRepo_tracerCarrier" stroke-linecap="round" stroke-linejoin="round"/>
<g id="SVGRepo_iconCarrier"> <g> <g> <path d="M261.95,264.547v21.25c5.391-1.269,9.674-4.282,9.674-9.99C271.624,270.573,267.659,267.243,261.95,264.547z"/> </g> </g> <g> <g> <path d="M255.999,155.11c-56.341,0-102.016,45.673-102.016,102.016c0,56.341,45.673,102.016,102.016,102.016 c56.341,0,102.016-45.673,102.016-102.016C358.015,200.785,312.342,155.11,255.999,155.11z M263.536,307.838v4.599 c0,2.22-3.013,4.282-6.025,4.282c-3.489,0-6.025-2.062-6.025-4.282v-3.964c-19.029-0.634-34.57-10.467-34.57-20.615 c0-5.391,4.756-13.32,10.783-13.32c6.66,0,12.052,9.355,23.787,11.417v-25.69c-14.59-5.55-31.716-12.369-31.716-32.666 c0-20.139,14.906-29.813,31.716-32.191v-4.44c0-2.22,2.537-4.282,6.025-4.282c3.013,0,6.025,2.062,6.025,4.282v3.964 c9.832,0.317,28.386,2.854,28.386,13.796c0,4.282-2.854,13.004-9.832,13.004c-5.232,0-8.246-5.075-18.553-5.868v23.152 c14.431,5.391,31.24,12.844,31.24,34.253C294.776,292.932,282.09,304.826,263.536,307.838z"/> </g> </g> <g> <g> <path d="M242.921,225.22c0,4.599,4.123,7.453,10.148,9.991v-18.871C245.934,217.767,242.921,221.415,242.921,225.22z"/> </g> </g> <g> <g> <path d="M495.528,107.761H16.471C7.375,107.761,0,115.135,0,124.232v263.534c0,9.097,7.375,16.471,16.471,16.471h479.057 c9.097,0,16.471-7.375,16.471-16.471V124.232C512,115.135,504.625,107.761,495.528,107.761z M479.057,276.142 c-49.126,7.187-87.966,46.027-95.152,95.154H128.097c-7.187-49.126-46.027-87.966-95.154-95.154v-40.284 c49.126-7.187,87.966-46.027,95.154-95.152h255.807c7.187,49.126,46.027,87.966,95.152,95.152V276.142z"/> </g> </g> </g>
</svg>